# AST/ASF file generated using VICON BodyLanguage
# -----------------------------------------------
:version 1.10
:name VICON
:units
  mass 1.0
  length 0.45
  angle deg
:documentation
   .ast/.asf automatically generated from VICON data using
   VICON BodyBuilder and BodyLanguage model FoxedUp or BRILLIANT.MOD
:root
   order TX TY TZ RX RY RZ
   axis XYZ
   position 0 0 0  
   orientation 0 0 0 
:bonedata
  begin
     id 1 
     name lhipjoint
     direction 0.631061 -0.684803 0.364427 
     length 2.59943 
     axis 0 0 0  XYZ
  end
  begin
     id 2 
     name lfemur
     direction 0.34202 -0.939693 0  
     length 6.69088  
     axis 0 0 20  XYZ
    dof rx ry rz
    limits (-160.0 20.0)
           (-70.0 70.0)
           (-60.0 70.0)
  end
  begin
     id 3 
     name ltibia
     direction 0.34202 -0.939693 0   
     length 7.83506   
     axis 0 0 20   XYZ
    dof rx
    limits (-10.0 170.0)
  end
  begin
     id 4 
     name lfoot
     direction 0.176279 -0.484322 0.856947   
     length 2.95235   
     axis -90 7.62852e-016 20   XYZ
    dof rx rz
    limits (-45.0 90.0)
           (-70.0 20.0)
  end
  begin
     id 5 
     name ltoes
     direction 1.53551e-011 -4.21828e-011 1   
     length 1.41888   
     axis -90 7.62852e-016 20   XYZ
    dof rx
    limits (-90.0 20.0)
  end
  begin
     id 6 
     name rhipjoint
     direction -0.641155 -0.677457 0.360518   
     length 2.62761  
     axis 0 0 0  XYZ 
  end
  begin
     id 7 
     name rfemur
     direction -0.34202 -0.939693 0   
     length 6.52283   
     axis 0 0 -20   XYZ
    dof rx ry rz
    limits (-160.0 20.0)
           (-70.0 70.0)
           (-70.0 60.0)
  end
  begin
     id 8 
     name rtibia
     direction -0.34202 -0.939693 0   
     length 7.74138   
     axis 0 0 -20   XYZ
    dof rx
    limits (-10.0 170.0)
 end
 begin
     id 9 
     name rfoot
     direction -0.186474 -0.512334 0.838297   
     length 2.72941  
     axis -90 -7.62852e-016 -20   XYZ
    dof rx rz
    limits (-45.0 90.0)
           (-20.0 70.0)
  end
  begin
     id 10 
     name rtoes
     direction -1.53683e-011 -4.22007e-011 1   
     length 1.30521   
     axis -90 -7.62852e-016 -20   XYZ
    dof rx
    limits (-90.0 20.0)
  end
  begin
     id 11 
     name lowerback
     direction -0.0121201 0.985605 -0.168631   
     length 2.60975   
     axis 0 0 0   XYZ
    dof rx ry rz
    limits (-20.0 45.0)
           (-30.0 30.0)
           (-30.0 30.0)
  end
  begin
     id 12 
     name upperback
     direction -0.019495 0.999568 -0.0220039   
     length 2.65091   
     axis 0 0 0   XYZ
    dof rx ry rz
    limits (-20.0 45.0)
           (-30.0 30.0)
           (-30.0 30.0)
  end
  begin
     id 13 
     name thorax
     direction -0.0125765 0.998661 0.0501718   
     length 2.70267   
     axis 0 0 0   XYZ
    dof rx ry rz
    limits (-20.0 45.0)
           (-30.0 30.0)
           (-30.0 30.0)
  end
  begin
     id 14 
     name lowerneck
     direction -0.0309438 0.997491 -0.0636732   
     length 1.56498   
     axis 0 0 0   XYZ
    dof rx ry rz
    limits (-20.0 45.0)
           (-30.0 30.0)
           (-30.0 30.0)
  end
  begin
     id 15 
     name upperneck
     direction -0.00130017 0.992397 -0.123074   
     length 1.5414   
     axis 0 0 0   XYZ
    dof rx ry rz
    limits (-20.0 45.0)
           (-30.0 30.0)
           (-30.0 30.0)
  end
  begin
     id 16
     name head
     direction 0.00242507 0.999315 -0.0369171  
     length 1.60129  
     axis 0 0 0   XYZ
    dof rx ry rz
    limits (-20.0 45.0)
           (-30.0 30.0)
           (-30.0 30.0)
  end
  begin
     id 17 
     name lclavicle
     direction 0.996744 0.0363396 -0.0719802  
     length 4.63989  
     axis 0 0 0   XYZ
    dof ry rz
    limits (-20.0 10.0)
           (0.0 20.0)
  end
  begin
     id 18 
     name lhumerus
     direction 1 -4.49035e-011 -2.38432e-027   
     length 4.58161   
     axis 180 -30 -90   XYZ
    dof rx ry rz
    limits (-60.0 90.0)
           (-90.0 90.0)
           (-90.0 90.0)
  end
  begin
     id 19
     name lradius
     direction 1 0.000357117 -0.000206182   
     length 3.43782   
     axis 180 -30 -90   XYZ
    dof rx
    limits (-10.0 170.0)
  end
  begin
     id 20
     name lwrist
     direction 1 -7.34592e-005 -0.000404398   
     length 1.71891   
     axis 7.40711e-015 90 90   XYZ
    dof ry
    limits (-180.0 0.0)
 end
  begin
     id 21 
     name lhand
     direction 1 -4.48735e-011 -2.22254e-026   
     length 1.04662   
     axis 1.41817e-014 90 90   XYZ
    dof rx rz
    limits (-90.0 90.0)
           (-45.0 45.0)
  end
  begin
     id 22 
     name lfingers
     direction 1 -4.49414e-011 -4.44507e-026   
     length 0.843814   
     axis 2.83634e-014 90 90   XYZ
    dof rx
    limits (0.0 90.0)
  end
  begin
     id 23
     name lthumb
     direction 0.707107 -6.3482e-011 0.707107   
     length 1.21155   
     axis -90 45 2.85299e-015   XYZ
    dof rx rz
    limits (-45.0 45.0)
           (-45.0 45.0)
  end
  begin
     id 24 
     name rclavicle
     direction -0.997328 0.0105626 0.0722925   
     length 4.0272  
     axis 0 0 0   XYZ 
    dof ry rz
    limits (-10.0 20.0)
           (-20.0 0.0)
  end
  begin
     id 25 
     name rhumerus
     direction -1 -4.48913e-011 -1.83378e-027  
     length 4.53415   
     axis 180 30 90   XYZ
    dof rx ry rz
    limits (-90.0 60.0)
           (-90.0 90.0)
           (-90.0 90.0)
  end
  begin
     id 26 
     name rradius
     direction -0.999999 0.00120542 -0.000695951   
     length 3.33298   
     axis 180 30 90   XYZ
    dof rx
    limits (-10.0 170.0)
  end
  begin
     id 27 
     name rwrist
     direction -0.999999 0.000362235 -0.0013361   
     length 1.66649   
     axis 7.40711e-015 -90 -90   XYZ
    dof ry
    limits (-180.0 0.0)
  end
  begin
     id 28
     name rhand
     direction -1 -4.49379e-011 -2.22254e-026   
     length 1.21477   
     axis 1.41817e-014 -90 -90   XYZ
    dof rx rz
    limits (-90.0 90.0)
           (-45.0 45.0)
  end
  begin
     id 29
     name rfingers
     direction -1 -4.48656e-011 -4.44507e-026   
     length 0.979378   
     axis 2.83634e-014 -90 -90   XYZ
    dof rx
    limits (0.0 90.0)
  end
  begin
     id 30
     name rthumb
     direction -0.707107 -6.35052e-011 0.707107   
     length 1.4062   
     axis -90 -45 -2.85299e-015   XYZ
    dof rx rz
    limits (-45.0 45.0)
           (-45.0 45.0)
  end
:hierarchy
  begin
    root lhipjoint rhipjoint lowerback
    lhipjoint lfemur
    lfemur ltibia
    ltibia lfoot
    lfoot ltoes
    rhipjoint rfemur
    rfemur rtibia
    rtibia rfoot
    rfoot rtoes
    lowerback upperback
    upperback thorax
    thorax lowerneck lclavicle rclavicle
    lowerneck upperneck
    upperneck head
    lclavicle lhumerus
    lhumerus lradius
    lradius lwrist
    lwrist lhand lthumb
    lhand lfingers
    rclavicle rhumerus
    rhumerus rradius
    rradius rwrist
    rwrist rhand rthumb
    rhand rfingers
  end

#!OML:ASF X:\für Bonn\!DataBase\2005_08_12_Daniel\c3d\Daniel.ASF
:FULLY-SPECIFIED
:DEGREES
1
root 1.00964 17.5661 0.169185 -34.5976 -82.3869 31.7729
lowerback 3.1753 -1.44983 -4.06622
upperback -0.538031 -2.20977 -2.92703
thorax -2.29918 -1.08751 -0.619482
lowerneck 3.35697 2.39217 -2.41355
upperneck 7.59327 2.99402 0.458552
head 1.74989 1.37679 0.558086
rclavicle 9.64106e-015 -1.47101e-014
rhumerus -20.0605 22.9291 -9.82193
rradius 22.0246
rwrist -28.8635
rhand -20.1139 -1.31677
rfingers 7.12502
rthumb 6.22985 -31.2052
lclavicle 9.64106e-015 -1.47101e-014
lhumerus -22.4066 0.606739 -4.23652
lradius 20.5477
lwrist 20.0498
lhand -29.8696 13.3235
lfingers 7.12502
lthumb -3.19157 43.2794
rfemur 0.723547 24.7152 16.6439
rtibia 27.7434
rfoot -35.1375 -27.4993
rtoes -13.1695
lfemur -2.68 -12.5351 -21.6508
ltibia 29.351
lfoot -23.9403 9.41281
ltoes -18.8144
2
root 1.00924 17.5655 0.170071 -34.5877 -82.3794 31.7528
lowerback 3.1937 -1.46715 -4.07445
upperback -0.539509 -2.23339 -2.90493
thorax -2.30941 -1.09862 -0.590475
lowerneck 3.35941 2.381 -2.45515
upperneck 7.61311 2.97819 0.44874
head 1.7557 1.36708 0.562091
rclavicle 2.22887e-014 7.95139e-015
rhumerus -20.0179 23.0345 -9.81722
rradius 22.0355
rwrist -28.867
rhand -20.1446 -1.27466
rfingers 7.12502
rthumb 6.20026 -31.1639
lclavicle 2.22887e-014 7.95139e-015
lhumerus -22.4767 0.397993 -4.15654
lradius 20.5736
lwrist 20.2416
lhand -29.9665 13.3445
lfingers 7.12502
lthumb -3.28507 43.2989
rfemur 0.73871 24.7066 16.6458
rtibia 27.7484
rfoot -35.1454 -27.4942
rtoes -13.1722
lfemur -2.66644 -12.539 -21.6582
ltibia 29.3523
lfoot -23.9439 9.41089
ltoes -18.8145
3
root 1.00882 17.5659 0.170387 -34.6144 -82.3892 31.775
lowerback 3.20121 -1.46391 -4.06754
upperback -0.526379 -2.22858 -2.90458
thorax -2.30041 -1.09654 -0.594171
lowerneck 3.32787 2.3562 -2.42779
upperneck 7.60988 2.94817 0.42803
head 1.76116 1.35278 0.551421
rclavicle -4.20927e-014 3.97569e-016
rhumerus -20.0246 23.089 -9.85846
rradius 22.0442
rwrist -28.9073
rhand -20.1832 -1.31395
rfingers 7.12502
rthumb 6.16294 -31.2043
lclavicle -4.20927e-014 3.97569e-016
lhumerus -22.4693 0.515128 -4.15225
lradius 20.5633
lwrist 20.1235
lhand -29.9228 13.3816
lfingers 7.12502
lthumb -3.24291 43.3367
rfemur 0.762653 24.8287 16.6879
rtibia 27.7532
rfoot -35.2196 -27.5824
rtoes -13.1493
lfemur -2.66009 -12.492 -21.6472
ltibia 29.3489
lfoot -23.9421 9.3746
ltoes -18.8168
4
root 1.00777 17.5655 0.17127 -34.826 -82.3737 31.971
lowerback 3.21287 -1.46552 -4.07061
upperback -0.526771 -2.23209 -2.91373
thorax -2.30758 -1.0983 -0.601353
lowerneck 3.39021 2.34082 -2.4981
upperneck 7.57183 2.92221 0.465992
head 1.73718 1.33893 0.573504
rclavicle 1.31446e-014 -2.90226e-014
rhumerus -20.0305 23.2672 -9.89084
rradius 22.0731
rwrist -29.0826
rhand -20.1746 -1.30923
rfingers 7.12502
rthumb 6.17122 -31.1993
lclavicle 1.31446e-014 -2.90226e-014
lhumerus -22.4601 0.629222 -4.15384
lradius 20.539
lwrist 19.9503
lhand -29.8821 13.388
lfingers 7.12502
lthumb -3.20361 43.3436
rfemur 0.784036 24.8189 16.6551
rtibia 27.7549
rfoot -35.219 -27.566
rtoes -13.1529
lfemur -2.63753 -12.4753 -21.6977
ltibia 29.3496
lfoot -23.9296 9.40759
ltoes -18.9298
5
root 1.00746 17.566 0.173044 -34.8213 -82.3714 31.9665
lowerback 3.22766 -1.46644 -4.05004
upperback -0.525564 -2.2335 -2.9182
thorax -2.31555 -1.09922 -0.616919
lowerneck 3.37846 2.32402 -2.47658
upperneck 7.56475 2.90219 0.440239
head 1.73784 1.32929 0.561922
rclavicle 4.57205e-015 -1.94809e-014
rhumerus -20.0173 23.2942 -9.92276
rradius 22.0476
rwrist -28.967
rhand -20.2103 -1.3459
rfingers 7.12502
rthumb 6.1368 -31.237
lclavicle 4.57205e-015 -1.94809e-014
lhumerus -22.4419 0.336197 -4.08935
lradius 20.5299
lwrist 20.2016
lhand -29.9012 13.4689
lfingers 7.12502
lthumb -3.22206 43.4243
rfemur 0.781091 24.7758 16.6357
rtibia 27.7544
rfoot -35.1976 -27.5299
rtoes -13.1643
lfemur -2.63345 -12.4972 -21.7111
ltibia 29.3517
lfoot -23.9351 9.42968
ltoes -18.9246
6
root 1.0066 17.5656 0.174053 -34.9243 -82.3919 32.0677
lowerback 3.22202 -1.46481 -4.05477
upperback -0.510372 -2.22893 -2.88706
thorax -2.29532 -1.09676 -0.582877
lowerneck 3.36326 2.30878 -2.56924
upperneck 7.55084 2.88057 0.448905
head 1.73507 1.3165 0.580099
rclavicle -1.75427e-014 6.75868e-015
rhumerus -19.998 23.5353 -9.91475
rradius 22.0945
rwrist -29.1993
rhand -20.2477 -1.41953
rfingers 7.12502
rthumb 6.10068 -31.3117
lclavicle -1.75427e-014 6.75868e-015
lhumerus -22.4635 0.425584 -4.0383
lradius 20.5163
lwrist 20.186
lhand -29.8996 13.4553
lfingers 7.12502
lthumb -3.22053 43.4107
rfemur 0.798991 24.8773 16.6606
rtibia 27.7518
rfoot -35.2417 -27.5558
rtoes -13.102
lfemur -2.6236 -12.5048 -21.7216
ltibia 29.3571
lfoot -23.9489 9.46135
ltoes -18.9162
7
root 1.00492 17.565 0.174946 -34.9157 -82.3917 32.0608
lowerback 3.21616 -1.46462 -4.04543
upperback -0.517867 -2.22831 -2.88827
thorax -2.30015 -1.09645 -0.589413
lowerneck 3.38935 2.29055 -2.55395
upperneck 7.5469 2.85564 0.443376
head 1.72995 1.30428 0.575296
rclavicle 1.85367e-014 1.11319e-014
rhumerus -20.0173 23.5881 -9.94591
rradius 22.0993
rwrist -29.2434
rhand -20.2863 -1.2977
rfingers 7.12502
rthumb 6.06342 -31.1909
lclavicle 1.85367e-014 1.11319e-014
lhumerus -22.4504 0.347407 -4.0078
lradius 20.5075
lwrist 20.2096
lhand -29.9311 13.4342
lfingers 7.12502
lthumb -3.2509 43.3892
rfemur 0.807407 24.8746 16.659
rtibia 27.7461
rfoot -35.2946 -27.53
rtoes -12.9764
lfemur -2.6091 -12.5268 -21.7323
ltibia 29.3643
lfoot -23.9418 9.48197
ltoes -19.0476
8
root 1.0049 17.565 0.176747 -34.9215 -82.392 32.0666
lowerback 3.21116 -1.47147 -4.04019
upperback -0.498016 -2.23456 -2.86009
thorax -2.27576 -1.09965 -0.563491
lowerneck 3.37466 2.27274 -2.63534
upperneck 7.51236 2.83152 0.445704
head 1.72076 1.29088 0.589386
rclavicle 1.19519e-014 1.66979e-014
rhumerus -19.9208 23.4879 -9.8901
rradius 22.0703
rwrist -29.0484
rhand -20.2418 -1.41965
rfingers 7.12502
rthumb 6.1064 -31.3116
lclavicle 1.19519e-014 1.66979e-014
lhumerus -22.498 0.386156 -3.93684
lradius 20.513
lwrist 20.1762
lhand -29.8824 13.4849
lfingers 7.12502
lthumb -3.20392 43.4406
rfemur 0.811916 24.8899 16.6558
rtibia 27.7441
rfoot -35.3059 -27.5365
rtoes -12.9713
lfemur -2.61714 -12.4616 -21.7247
ltibia 29.3684
lfoot -23.936 9.42237
ltoes -19.0517
9
root 1.00463 17.5651 0.176617 -34.8891 -82.3862 32.0429
lowerback 3.22523 -1.47305 -4.01493
upperback -0.512768 -2.23831 -2.88406
thorax -2.30074 -1.10174 -0.601375
lowerneck 3.42569 2.25124 -2.5687
upperneck 7.4842 2.80315 0.427736
head 1.70441 1.27845 0.571488
rclavicle 1.49089e-016 1.55052e-014
rhumerus -19.9399 23.5768 -9.97414
rradius 22.0375
rwrist -29.0607
rhand -20.3077 -1.42228
rfingers 7.12502
rthumb 6.04271 -31.3161
lclavicle 1.49089e-016 1.55052e-014
lhumerus -22.4585 0.111898 -3.91063
lradius 20.5178
lwrist 20.3769
lhand -29.8683 13.5015
lfingers 7.12502
lthumb -3.19027 43.4574
rfemur 0.807772 24.899 16.6576
rtibia 27.7429
rfoot -35.3173 -27.5491
rtoes -12.9669
lfemur -2.62872 -12.4549 -21.7196
ltibia 29.3707
lfoot -23.9358 9.40886
ltoes -19.0524
10
root 1.0043 17.565 0.177912 -34.9209 -82.3926 32.071
lowerback 3.22255 -1.47463 -4.00788
upperback -0.502397 -2.23831 -2.8609
thorax -2.28782 -1.10169 -0.581727
lowerneck 3.45961 2.24136 -2.65847
upperneck 7.44253 2.78678 0.438108
head 1.68431 1.26864 0.588703
rclavicle 1.30452e-014 3.89618e-014
rhumerus -19.9495 23.771 -9.97082
rradius 22.0994
rwrist -29.3083
rhand -20.3137 -1.38316
rfingers 7.12502
rthumb 6.037 -31.2772
lclavicle 1.30452e-014 3.89618e-014
lhumerus -22.4786 0.110768 -3.84549
lradius 20.5007
lwrist 20.3889
lhand -29.9179 13.4997
lfingers 7.12502
lthumb -3.23819 43.4549
rfemur 0.809829 24.8825 16.6495
rtibia 27.7396
rfoot -35.3013 -27.5296
rtoes -12.9738
lfemur -2.62156 -12.4686 -21.7285
ltibia 29.3741
lfoot -23.9399 9.46282
ltoes -19.052
11
root 1.00287 17.5649 0.178738 -35.0172 -82.4143 32.1723
lowerback 3.19783 -1.46698 -3.99816
upperback -0.481344 -2.22518 -2.86238
thorax -2.25286 -1.09598 -0.59032
lowerneck 3.41182 2.22318 -2.62263
upperneck 7.44357 2.76687 0.411107
head 1.6939 1.25952 0.574975
rclavicle -9.41742e-015 -4.77083e-015
rhumerus -19.9408 23.7746 -10.0044
rradius 22.091
rwrist -29.2212
rhand -20.3083 -1.46787
rfingers 7.12502
rthumb 6.0422 -31.3617
lclavicle -9.41742e-015 -4.77083e-015
lhumerus -22.4806 -0.192076 -3.76943
lradius 20.541
lwrist 20.7781
lhand -29.9171 13.5145
lfingers 7.12502
lthumb -3.23743 43.4696
rfemur 0.798463 24.8738 16.634
rtibia 27.7387
rfoot -35.2796 -27.5022
rtoes -12.9841
lfemur -2.61412 -12.4983 -21.7447
ltibia 29.3752
lfoot -23.9528 9.5183
ltoes -19.0481
12
root 1.00274 17.5647 0.17989 -35.0535 -82.4189 32.2096
lowerback 3.21816 -1.47062 -3.99927
upperback -0.491284 -2.23051 -2.83438
thorax -2.27323 -1.09775 -0.559925
lowerneck 3.46863 2.20757 -2.72221
upperneck 7.39029 2.74147 0.426494
head 1.66617 1.24513 0.594915
rclavicle -3.45388e-015 -6.75868e-015
rhumerus -19.835 23.4768 -9.91117
rradius 22.0391
rwrist -28.8604
rhand -20.2533 -1.40449
rfingers 7.12502
rthumb 6.09528 -31.2968
lclavicle -3.45388e-015 -6.75868e-015
lhumerus -22.4872 -0.203531 -3.70127
lradius 20.4934
lwrist 20.6886
lhand -29.9862 13.5588
lfingers 7.12502
lthumb -3.30412 43.5129
rfemur 0.814029 24.9574 16.6527
rtibia 27.7348
rfoot -35.3301 -27.5586
rtoes -12.9618
lfemur -2.61228 -12.507 -21.7543
ltibia 29.3773
lfoot -23.9569 9.53507
ltoes -19.0469
13
root 1.0016 17.5643 0.181082 -35.119 -82.4341 32.272
lowerback 3.20345 -1.4659 -3.96061
upperback -0.477806 -2.22213 -2.85914
thorax -2.25365 -1.09484 -0.607929
lowerneck 3.46358 2.1875 -2.67901
upperneck 7.39287 2.71534 0.435049
head 1.66864 1.23342 0.59041
rclavicle -4.23411e-014 -3.18055e-014
rhumerus -19.857 23.5164 -9.99188
rradius 22.0328
rwrist -28.9005
rhand -20.3379 -1.42483
rfingers 7.12502
rthumb 6.0136 -31.3195
lclavicle -4.23411e-014 -3.18055e-014
lhumerus -22.4478 -0.0557311 -3.74691
lradius 20.4839
lwrist 20.5791
lhand -29.8752 13.5906
lfingers 7.12502
lthumb -3.19698 43.5463
rfemur 0.814531 24.9107 16.6355
rtibia 27.7307
rfoot -35.2931 -27.5078
rtoes -12.9798
lfemur -2.5964 -12.5192 -21.7654
ltibia 29.38
lfoot -23.9718 9.5653
ltoes -19.0419
14
root 1.00086 17.565 0.182049 -35.0989 -82.4366 32.2721
lowerback 3.19599 -1.47204 -3.96222
upperback -0.483145 -2.2287 -2.82813
thorax -2.25349 -1.09753 -0.574975
lowerneck 3.43891 2.1702 -2.77873
upperneck 7.40597 2.69035 0.449927
head 1.6762 1.21841 0.612154
rclavicle 3.95085e-015 -1.55052e-014
rhumerus -19.8025 23.5617 -9.9502
rradius 22.0424
rwrist -28.9093
rhand -20.303 -1.47087
rfingers 7.12502
rthumb 6.04731 -31.3646
lclavicle 3.95085e-015 -1.55052e-014
lhumerus -22.4727 -0.0110028 -3.68914
lradius 20.4587
lwrist 20.489
lhand -29.8557 13.563
lfingers 7.12502
lthumb -3.17815 43.5191
rfemur 0.787937 24.8948 16.6166
rtibia 27.7309
rfoot -35.2826 -27.492
rtoes -12.9856
lfemur -2.62422 -12.4472 -21.7473
ltibia 29.3786
lfoot -23.9621 9.49877
ltoes -19.0462
